<svg width="200" height="60" viewBox="0 0 200 60" fill="none" xmlns="http://www.w3.org/2000/svg">
  <!-- Background badge shape -->
  <rect x="2" y="2" width="196" height="56" rx="8" fill="#0f0f0f" stroke="#fbbf24" stroke-width="2"/>
  
  <!-- Discount tag icon -->
  <path d="M20 15L30 15C32 15 33 16 33 18L33 28C33 30 32 31 30 31L20 31C18 31 17 30 17 28L17 18C17 16 18 15 20 15Z" fill="#fbbf24"/>
  <path d="M30 15L38 23L30 31" stroke="#fbbf24" stroke-width="2" stroke-linecap="round"/>
  <circle cx="24" cy="23" r="2" fill="#0f0f0f"/>
  
  <!-- Percentage symbol -->
  <text x="20" y="48" font-family="Arial, sans-serif" font-size="12" font-weight="bold" fill="#0ea5e9">%OFF</text>
  
  <!-- Brand name "NameCheap" -->
  <text x="48" y="28" font-family="Arial, sans-serif" font-size="18" font-weight="bold" fill="#fbbf24">Name</text>
  <text x="48" y="45" font-family="Arial, sans-serif" font-size="18" font-weight="bold" fill="#0ea5e9">Cheap</text>
  
  <!-- Tagline -->
  <text x="115" y="35" font-family="Arial, sans-serif" font-size="9" fill="#a3a3a3">Brands • Discounts • Quality</text>
  
  <!-- Decorative elements -->
  <circle cx="180" cy="20" r="3" fill="#fbbf24" opacity="0.6"/>
  <circle cx="190" cy="25" r="2" fill="#0ea5e9" opacity="0.6"/>
  <circle cx="185" cy="32" r="2.5" fill="#fbbf24" opacity="0.4"/>
</svg>
